<svg width="95" height="95" viewBox="0 0 95 95" fill="none" xmlns="http://www.w3.org/2000/svg">
<path d="M47.5 0C34.5873 0 32.978 0.0623516 27.9246 0.276128C22.8504 0.525534 19.4181 1.31235 16.3895 2.48812C13.266 3.7114 10.6057 5.33551 7.97803 7.97803C5.33254 10.6057 3.69359 13.266 2.48812 16.3895C1.31235 19.4181 0.525534 22.8504 0.276128 27.9246C0.0475059 32.981 0 34.5873 0 47.5C0 60.4127 0.0623516 62.022 0.276128 67.0754C0.525534 72.1348 1.31235 75.5819 2.48812 78.6105C3.7114 81.734 5.33551 84.3943 7.97803 87.022C10.6057 89.6675 13.266 91.3064 16.3895 92.5119C19.4181 93.6728 22.8652 94.4745 27.9246 94.7239C32.981 94.9525 34.5873 95 47.5 95C60.4127 95 62.022 94.9377 67.0754 94.7239C72.1348 94.4745 75.5819 93.6698 78.6105 92.5119C81.734 91.2886 84.3943 89.6645 87.022 87.022C89.6675 84.3943 91.3064 81.7488 92.5119 78.6105C93.6728 75.5819 94.4745 72.1348 94.7239 67.0754C94.9525 62.019 95 60.4127 95 47.5C95 34.5873 94.9377 32.978 94.7239 27.9246C94.4745 22.8652 93.6698 19.4002 92.5119 16.3895C91.2886 13.266 89.6645 10.6057 87.022 7.97803C84.3943 5.33254 81.7488 3.69359 78.6105 2.48812C75.5819 1.31235 72.1348 0.525534 67.0754 0.276128C62.019 0.0475059 60.4127 0 47.5 0V0ZM47.5 8.55107C60.1811 8.55107 61.6954 8.61342 66.7072 8.8272C71.3302 9.04394 73.848 9.81591 75.5196 10.4691C77.7494 11.3331 79.3082 12.3545 80.9947 14.0232C82.6485 15.677 83.6698 17.2536 84.5338 19.4834C85.1871 21.155 85.959 23.6728 86.1758 28.2957C86.3895 33.3076 86.4519 34.8248 86.4519 47.503C86.4519 60.1811 86.3895 61.6983 86.158 66.7102C85.9086 71.3331 85.1366 73.851 84.4863 75.5226C83.5867 77.7524 82.5831 79.3112 80.9264 80.9976C79.2547 82.6514 77.6633 83.6728 75.4513 84.5368C73.8005 85.19 71.247 85.962 66.6063 86.1787C61.5677 86.3925 60.0831 86.4549 47.3694 86.4549C34.6556 86.4549 33.174 86.3925 28.1295 86.1609C23.5065 85.9115 20.9561 85.1395 19.2844 84.4893C17.0279 83.5897 15.481 82.5861 13.8242 80.9293C12.1526 79.2577 11.0897 77.6663 10.2702 75.4543C9.60511 73.8034 8.84501 71.25 8.59857 66.6093C8.42933 61.63 8.34917 60.0861 8.34917 47.4317C8.34917 34.7833 8.42933 33.2363 8.59857 28.1948C8.84501 23.554 9.60511 21.0065 10.2702 19.3498C11.0897 17.0903 12.1556 15.5463 13.8242 13.8747C15.478 12.2209 17.0279 11.152 19.2844 10.3147C20.9561 9.66449 23.4442 8.89252 28.0849 8.66093C33.1235 8.47981 34.6081 8.41449 47.304 8.41449L47.5 8.55107ZM47.5 23.1205C34.0172 23.1205 23.1146 34.038 23.1146 47.5059C23.1146 60.9887 34.0321 71.8913 47.5 71.8913C60.9828 71.8913 71.8854 60.9739 71.8854 47.5059C71.8854 34.0232 60.9679 23.1205 47.5 23.1205V23.1205ZM47.5 63.3403C38.747 63.3403 31.6657 56.2589 31.6657 47.5059C31.6657 38.753 38.747 31.6716 47.5 31.6716C56.253 31.6716 63.3343 38.753 63.3343 47.5059C63.3343 56.2589 56.253 63.3403 47.5 63.3403V63.3403ZM78.5689 22.1467C78.5689 25.3029 76.0006 27.8504 72.8593 27.8504C69.7031 27.8504 67.1556 25.2999 67.1556 22.1467C67.1556 19.0083 69.7209 16.4549 72.8593 16.4549C75.9976 16.4549 78.5689 19.0083 78.5689 22.1467V22.1467Z" fill="black"/>
</svg>
