<svg width="95" height="95" viewBox="0 0 95 95" fill="none" xmlns="http://www.w3.org/2000/svg">
<path d="M95 47.5C95 21.2592 73.723 0 47.5 0C21.2592 0 0 21.2592 0 47.5C0 71.2025 17.3642 90.8556 40.0781 94.4151V61.2334H28.0161V47.503H40.0781V37.0322C40.0781 25.1305 47.1586 18.5577 58.0123 18.5577C63.2106 18.5577 68.6523 19.4839 68.6523 19.4839V31.1719H62.6525C56.7625 31.1719 54.9219 34.8383 54.9219 38.5937V47.5H68.0942L65.9775 61.2305H54.9219V94.4122C77.618 90.8526 95 71.1995 95 47.497V47.5Z" fill="black"/>
</svg>
