<svg width="95" height="95" viewBox="0 0 95 95" fill="none" xmlns="http://www.w3.org/2000/svg">
<path d="M92.2837 9.87174L92.1268 9.77368L72.2883 0L50.8758 28.5499L60.7271 41.6859C60.4324 46.6398 58.3315 51.3137 54.8224 54.8228C51.3132 58.3319 46.6393 60.4326 41.6854 60.7274L28.5497 50.876L0 72.288L9.69235 91.9607L9.77391 92.1268L9.8722 92.2835C10.3894 93.1169 11.1114 93.8041 11.9693 94.2796C12.8272 94.7551 13.7925 95.0031 14.7734 95H19.8924C29.7557 95 39.5224 93.0573 48.6349 89.2827C57.7474 85.5082 66.0272 79.9758 73.0016 73.0014C79.9759 66.027 85.5083 57.7472 89.2828 48.6347C93.0573 39.5222 95 29.7554 95 19.8922V14.7729C95.0031 13.7921 94.7551 12.8267 94.2797 11.9688C93.8042 11.1109 93.1171 10.389 92.2837 9.87174V9.87174ZM87.6687 19.8922C87.6687 57.2643 57.2643 87.6687 19.8924 87.6687H15.7502L9.26531 74.5039L28.551 60.0396L39.2883 68.0923H40.5101C47.8233 68.0841 54.8346 65.1753 60.0057 60.0041C65.1769 54.8329 68.0857 47.8217 68.0939 40.5085V39.2867L60.0412 28.5497L74.5039 9.26508L87.6687 15.7512V19.8922Z" fill="black"/>
</svg>
