<svg width="95" height="96" viewBox="0 0 95 96" fill="none" xmlns="http://www.w3.org/2000/svg">
<path d="M80.9281 80.9608H66.877V58.9119C66.877 53.6542 66.7672 46.8973 59.5294 46.8973C52.2025 46.8973 51.0863 52.6003 51.0863 58.523V80.9578H37.0173V35.622H50.5311V41.8059H50.7122C52.6003 38.2345 57.193 34.4791 64.0448 34.4791C78.2978 34.4791 80.943 43.8633 80.943 56.0648V80.9578L80.9281 80.9608ZM21.1227 29.4262C16.5894 29.4262 12.9556 25.7598 12.9556 21.2444C12.9556 16.7437 16.6042 13.0833 21.1227 13.0833C25.6411 13.0833 29.3016 16.7437 29.3016 21.2444C29.3016 25.7598 25.6411 29.4262 21.1227 29.4262V29.4262ZM28.1705 80.9608H14.0719V35.625H28.1705V80.9608ZM87.9819 0H7.00625C3.13797 0 0 3.06078 0 6.84891V88.1541C0 91.9422 3.13797 95.003 7.00625 95.003H87.967C91.8294 95.003 95 91.9422 95 88.1541V6.84891C95 3.06078 91.8294 0 87.967 0L87.9819 0Z" fill="black"/>
</svg>
